<svg xmlns="http://www.w3.org/2000/svg" viewBox="0 0 276 24" role="img" aria-labelledby="title">
  <title id="title">Decorative row of simple icons</title>
  <defs>
    <path id="simpleicons-mark" d="M12 0C8.688 0 6 2.688 6 6s2.688 6 6 6c4.64-.001 7.526 5.039 5.176 9.04h1.68A7.507 7.507 0 0 0 12 10.5 4.502 4.502 0 0 1 7.5 6c0-2.484 2.016-4.5 4.5-4.5s4.5 2.016 4.5 4.5H18c0-3.312-2.688-6-6-6Zm0 3a3 3 0 0 0 0 6c4 0 4-6 0-6Zm0 1.5A1.5 1.5 0 0 1 13.5 6v.002c-.002 1.336-1.617 2.003-2.561 1.058C9.995 6.115 10.664 4.5 12 4.5ZM7.5 15v1.5H9v6H4.5V24h15v-1.5H15v-6h1.5V15Zm3 1.5h3v6h-3zm-6 1.47c0 1.09.216 2.109.644 3.069h1.684A5.957 5.957 0 0 1 6 17.97Z"/>
  </defs>
  <style>
    .icon-1{fill:#111111}.icon-2{fill:#808080}.icon-3{fill:#ff69b4}.icon-4{fill:#00ccff}.icon-5{fill:#00ccff99}.icon-6{fill:#00ccff}.icon-7{fill:#00ccff99}.icon-8{fill:#ffa500}.icon-9{fill:#111111}.icon-10{fill:#eeeeee}
    @media (prefers-color-scheme: dark) {
      .icon-8{fill:#ffc0cb}
      .icon-9{fill:#eeeeee}
      .icon-10{fill:#111111}
    }
  </style>
  <use href="#simpleicons-mark" x="0" class="icon-1"/>
  <use href="#simpleicons-mark" x="28" class="icon-2"/>
  <use href="#simpleicons-mark" x="56" class="icon-3"/>
  <use href="#simpleicons-mark" x="84" class="icon-4"/>
  <use href="#simpleicons-mark" x="112" class="icon-5"/>
  <use href="#simpleicons-mark" x="140" class="icon-6"/>
  <use href="#simpleicons-mark" x="168" class="icon-7"/>
  <use href="#simpleicons-mark" x="196" class="icon-8"/>
  <use href="#simpleicons-mark" x="224" class="icon-9"/>
  <use href="#simpleicons-mark" x="252" class="icon-10"/>
</svg>
